<svg width="500" height="150" viewBox="0 0 500 150" fill="none" xmlns="http://www.w3.org/2000/svg">
<g opacity="0.5">
<path fill-rule="evenodd" clip-rule="evenodd" d="M244.824 34.8115C247.64 35.8623 254.064 35.7205 257.432 36.579C248.677 35.9605 240.133 35.5603 232.189 36.1528C230.866 35.9305 231.67 35.0045 229.55 35.0461C227.743 35.2411 230.757 35.8214 228.902 36.1528C225.963 35.9633 222.928 36.3424 220.937 35.4839C219.383 35.4839 221.196 36.0819 222.287 35.9189C221.987 36.3424 220.364 36.3185 220.937 37.0229C218.68 36.221 213.286 35.9189 209.638 35.9189C210.941 37.3127 218.707 36.774 218.257 38.1242C219.492 37.2568 222.812 38.4638 222.928 37.2364C224.265 37.3127 224.715 37.683 225.567 37.9108C225.717 38.3785 223.249 38.0049 222.287 38.1242C221.374 38.2688 221.019 38.6063 220.937 38.997C222.472 39.426 225.929 39.2609 227.579 39.6721C217.269 39.6128 206.665 37.683 195.039 38.3519C197.03 38.4563 202.383 38.8634 205.704 39.2343C201.367 39.7608 195.353 37.938 191.759 39.2343C196.28 40.4618 200.521 39.6987 205.704 40.5572C206.147 40.6309 203.788 40.8913 203.651 40.7672C205.151 42.2974 218.012 41.3093 221.612 42.9732C211.111 42.8627 204.592 41.4389 196.382 42.099C198.851 43.9851 210.654 43.4634 216.294 43.6353C214.084 44.1501 211.057 44.3908 207.006 44.3076C208.922 45.7069 215.959 45.4294 220.289 46.0622C219.778 46.264 219.055 46.382 218.257 46.5034C221.762 47.859 233.921 47.1982 237.528 47.8174C235.223 48.4338 230.995 47.8112 228.254 47.8174C227.32 49.5139 235.837 48.099 236.198 49.3714C228.452 49.1648 221.531 49.4191 216.962 49.8071L216.873 50.0908C160.494 46.5627 97.7389 46.2579 36.9887 47.8774L37.1182 46.5034C38.0592 46.6841 39.6821 46.6636 39.1093 47.3891C41.7074 47.1041 38.6934 46.2579 41.0732 45.8378C38.8025 45.9476 36.9886 45.8699 37.766 44.9616C30.7083 45.2275 25.3759 44.0383 19.1843 42.9732C20.5003 42.1849 20.0366 42.5402 19.1843 41.6523C20.2889 41.1102 24.1553 40.652 26.4874 41.2023C22.7302 41.5985 19.0752 41.7328 21.8028 43.1914C24.6122 43.7512 30.2788 43.3312 31.8062 44.3076C33.1768 43.9551 31.1107 42.9254 29.1605 42.9732C29.5287 42.4427 29.6924 41.8474 31.8062 41.8658C30.8993 40.8504 26.1942 41.0871 27.142 39.441C30.3674 39.8112 33.1768 40.5893 35.7817 39.441C34.9157 38.9534 32.1744 39.6987 30.4697 39.6721C29.7332 39.2521 29.6923 38.6152 27.142 38.7843C28.6558 38.4563 29.4128 37.2302 25.8055 37.4723C24.7827 36.6765 28.049 37.3434 27.8171 36.804C25.9419 35.8296 22.3756 36.517 19.1843 35.9189C21.5982 35.6203 22.7302 34.8975 23.1802 33.9326H27.142C27.4762 32.3676 16.0953 31.7716 17.8546 33.4859C16.3544 33.5746 17.1113 32.8552 15.8907 32.8347C18.1137 32.1924 21.1345 31.7901 23.1802 31.0795C20.3981 30.8961 19.7707 30.0083 15.8907 30.1917C15.1134 29.8692 15.1134 29.6291 15.8907 29.3066C5.86002 27.8146 6.54877 23.1852 0.588989 20.9445C1.17542 20.6104 2.28008 20.4678 3.91663 20.4985C2.28008 20.163 1.57769 19.5091 1.93227 18.5033C3.32334 18.6329 3.83477 19.0652 5.92137 18.9561C-2.15229 17.0965 7.12157 12.8613 8.60128 10.135C12.1881 10.3928 12.1881 10.2537 15.2157 9.70886C14.411 9.30041 11.1448 9.93116 8.60128 9.70886C10.156 8.32938 11.3493 7.77296 11.2334 6.16232C21.6664 4.05525 38.9048 3.8275 49.7128 3.74158C49.4333 3.2472 46.2147 3.74157 45.751 3.30311C57.7592 1.29083 75.5704 0.225708 90.8722 0C86.508 0.91238 79.3686 0.882385 74.9362 1.76476C101.51 1.87727 128.465 0.606888 159.212 1.5479C159.43 2.12275 155.516 1.34471 156.552 2.20868C158.019 2.53394 160.303 2.58713 162.56 2.65259C162.485 3.22129 159.955 2.94512 159.887 3.53087C182.519 5.21584 203.174 7.06242 224.231 8.81762C221.196 9.22948 212.611 7.50701 209.638 8.59327C215.162 9.62294 223.283 9.79682 228.902 10.7924C218.387 10.5551 205.199 9.27381 193.743 8.59327C193.423 9.28881 194.296 9.5909 196.382 9.48656C194.909 10.0846 191.616 9.43883 189.734 9.48656C192.148 10.804 198.203 10.9404 202.349 11.6857C205.342 14.6492 221.36 12.4889 230.886 13.8759C222.458 13.6427 214.807 13.3611 211.663 14.7672C214.268 15.6584 216.178 16.7863 221.612 16.7474C216.062 17.2125 213.286 16.2142 206.345 16.534C207.94 16.8865 210.313 16.9574 212.298 17.1913L210.982 17.6291C214.575 18.5824 221.087 18.5265 225.567 19.1681C224.135 19.8459 221.858 18.9561 219.635 19.1681C223.89 20.684 231.629 21.0624 237.528 22.0376C236.034 22.729 234.009 21.7471 232.189 21.8146C232.734 22.7529 235.789 22.8333 238.176 23.1497C239.949 24.8422 245.827 25.1538 250.122 26.0151C246.488 26.4801 235.257 24.3246 231.568 26.0151C230.163 25.6537 228.043 25.5561 226.222 25.3434C224.408 25.2602 225.642 26.178 224.231 26.2251C226.733 27.323 233.239 27.0597 234.862 28.4303C229.031 27.5868 223.426 26.6308 216.294 26.2251C224.879 28.2912 239.383 28.401 247.456 30.6295C239.949 29.3686 232.536 29.8869 224.913 29.3066C237.841 31.6298 253.082 32.4972 264.081 35.0461C253.396 34.7945 242.942 32.3103 232.891 31.7301C235.203 33.1723 246.44 32.817 244.824 34.8115Z" fill="#4BA664"/>
</g>
</svg>
