<?xml version="1.0" encoding="UTF-8"?>
<svg width="20px" height="28px" viewBox="0 0 20 28" version="1.1" xmlns="http://www.w3.org/2000/svg" xmlns:xlink="http://www.w3.org/1999/xlink">
    <title>icons/daostack</title>
    <g id="webpage-after-app-release---English---New-Logo" stroke="none" stroke-width="1" fill="none" fill-rule="evenodd">
        <g id="1-EN" transform="translate(-715.000000, -5544.000000)" fill="#FFFFFF" fill-rule="nonzero">
            <g id="components/footer/web/powered-by" transform="translate(0.000000, 5536.000000)">
                <g id="Group-22" transform="translate(644.000000, 8.000000)">
                    <g id="icons/daostack" transform="translate(71.000000, -0.000000)">
                        <path d="M17.9,11.807931 L20,9.75862069 L10,-3.55363248e-13 L0,9.75862069 L2.1,11.807931 L0,13.8572414 L2.05,15.8577586 L0,17.8582759 L10,27.6168966 L20,17.8582759 L17.9,15.8577586 L19.95,13.8572414 L17.9,11.807931 Z M1.3,9.75862069 L10,1.31741379 L18.65,9.75862069 L17.25,11.1248276 L10,4.04982759 L2.7,11.1248276 L1.3,9.75862069 Z M10,18.2486207 L5.5,13.8572414 L10,9.46586207 L14.5,13.8572414 L10,18.2486207 Z M15.15,14.4427586 L16.55,15.8089655 L10,22.2984483 L3.4,15.8577586 L4.8,14.4915517 L10,19.5172414 L15.15,14.4427586 Z M10,8.09965517 L4.8,13.1741379 L3.4,11.807931 L10,5.36724138 L16.6,11.807931 L15.15,13.1741379 L10,8.09965517 Z M1.3,13.8084483 L2.7,12.4422414 L4.1,13.8084483 L2.7,15.1746552 L1.3,13.8084483 Z M18.65,17.8582759 L10,26.3482759 L1.3,17.8582759 L2.7,16.492069 L9.95,23.567069 L17.2,16.492069 L18.65,17.8582759 Z M15.85,13.8084483 L17.25,12.4422414 L18.65,13.8084483 L17.25,15.1746552 L15.85,13.8084483 Z" id="Shape"></path>
                    </g>
                </g>
            </g>
        </g>
    </g>
</svg>