<svg xmlns="http://www.w3.org/2000/svg" width="219" height="98" viewBox="0 0 219 98">
    <g fill="none" fill-rule="evenodd">
        <g fill="#FFF">
            <g>
                <path d="M62.812 38.566c6.031 0 9.642 4.495 10.45 7.645h-4.419c-.652-1.345-2.19-3.996-5.993-3.996-5.147 0-6.99 4.303-6.99 7.53 0 3.688 2.342 7.568 6.914 7.568 2.996 0 5.032-1.729 6.03-3.919h4.457c-1.613 4.726-5.762 7.568-10.487 7.568-6.992 0-10.91-5.724-10.91-11.217 0-5.763 4.226-11.18 10.948-11.18zm23.859 0c6.454 0 11.486 5.071 11.486 11.14 0 5.187-4.264 11.256-11.486 11.256-7.146 0-11.487-5.954-11.487-11.332 0-5.801 4.88-11.064 11.487-11.064zm98.238 0c6.454 0 11.486 5.071 11.486 11.14 0 5.187-4.264 11.256-11.486 11.256-7.146 0-11.487-5.954-11.487-11.332 0-5.801 4.88-11.064 11.487-11.064zm-59.936 0c3.573 0 6.109 1.46 7.491 3.842.769 1.382 1.191 3.11 1.191 5.185v12.832h-3.995V48.592c0-1.805-.23-6.377-5.032-6.377-5.11 0-5.033 4.572-5.072 6.34v11.87h-3.995V48.592c.039-1.767-.038-2.958-.883-4.379-.999-1.537-2.497-1.998-3.957-1.998-5.167 0-5.261 4.593-5.263 6.25v11.96h-3.995V39.142h3.687v2.305h.078c.768-.883 2.15-2.881 6.107-2.881 2.575 0 5.533 1.229 6.608 3.573.691-1.076 2.267-3.573 7.03-3.573zm36.537 0c3.573 0 6.109 1.46 7.49 3.842.77 1.382 1.192 3.11 1.192 5.185v12.832h-3.995V48.592c0-1.805-.23-6.377-5.033-6.377-5.109 0-5.032 4.572-5.07 6.34v11.87h-3.996V48.592c.039-1.767-.038-2.958-.883-4.379-1-1.537-2.497-1.998-3.957-1.998-5.072 0-5.256 4.424-5.263 6.155v12.055H138V39.142h3.687v2.305h.077c.769-.883 2.152-2.881 6.108-2.881 2.574 0 5.532 1.229 6.608 3.573.691-1.076 2.267-3.573 7.03-3.573zm48.179 0c3.304 0 5.993 1.421 7.53 3.803.844 1.383 1.305 3.073 1.344 5.455v12.6h-3.995V48.673c-.007-1.813-.19-6.457-5.302-6.457-3.342 0-5.609 2.344-5.609 6.608v11.602h-3.995V39.142h3.727v2.266h.076c2.035-2.689 5.033-2.834 6.067-2.842h.157zm-123.018 3.65c-4.495 0-7.491 3.725-7.491 7.529 0 3.842 3.034 7.568 7.49 7.568 4.303 0 7.491-3.573 7.491-7.607 0-3.765-2.996-7.49-7.49-7.49zm98.238 0c-4.495 0-7.491 3.725-7.491 7.529 0 3.842 3.035 7.568 7.49 7.568 4.303 0 7.492-3.573 7.492-7.607 0-3.765-2.996-7.49-7.491-7.49zM42.946 94.588c.579-1.001 1.861-1.343 2.865-.764 1 .577 1.343 1.859.764 2.862-.387.671-1.092 1.048-1.815 1.048-.357 0-.718-.091-1.048-.28-1-.58-1.343-1.862-.766-2.866zm21.358-2.435c1.146-.15 2.2.658 2.35 1.807.15 1.146-.658 2.199-1.807 2.35-.091.012-.183.017-.274.017-1.036 0-1.938-.77-2.076-1.824-.15-1.147.658-2.2 1.807-2.35zm-14.318-.558c.298-1.119 1.447-1.782 2.567-1.484 1.116.298 1.782 1.444 1.484 2.564-.249.937-1.097 1.556-2.024 1.556-.178 0-.36-.023-.54-.072-1.12-.298-1.785-1.445-1.487-2.564zm22.668-2.36c1.07-.445 2.295.06 2.739 1.13.444 1.069-.061 2.296-1.132 2.74-.264.108-.535.16-.803.16-.821 0-1.6-.486-1.936-1.292-.444-1.07.064-2.295 1.132-2.739zm-34.073-.473c.706-.917 2.02-1.09 2.94-.387.917.705 1.09 2.022.384 2.94-.411.536-1.033.82-1.664.82-.444 0-.892-.143-1.273-.434-.919-.705-1.091-2.02-.387-2.939zm44.48-.819c1.157 0 2.096.938 2.096 2.096.002 1.156-.937 2.096-2.093 2.096-1.16 0-2.096-.937-2.099-2.094 0-1.158.937-2.098 2.096-2.098zM62.48 84.817c1.156 0 2.096.938 2.096 2.096.002 1.156-.938 2.096-2.094 2.096-1.159 0-2.095-.937-2.098-2.094 0-1.158.937-2.098 2.096-2.098zm-17.213 1.148c.442-1.07 1.667-1.579 2.737-1.137 1.07.444 1.578 1.669 1.135 2.74-.334.805-1.115 1.294-1.936 1.294-.27 0-.54-.052-.802-.16-1.07-.442-1.577-1.67-1.134-2.737zm10.257.366c.15-1.148 1.2-1.957 2.35-1.81 1.146.151 1.958 1.201 1.807 2.35-.136 1.056-1.038 1.825-2.075 1.825-.09 0-.18-.005-.272-.018-1.149-.147-1.958-1.198-1.81-2.347zm11.561-1.814c1.147-.15 2.2.658 2.35 1.807.15 1.146-.658 2.199-1.807 2.35-.091.012-.183.017-.274.017-1.035 0-1.938-.77-2.076-1.824-.15-1.147.658-2.2 1.807-2.35zm-16.302.6c.298-1.12 1.447-1.784 2.567-1.485 1.116.298 1.782 1.445 1.484 2.563-.249.938-1.097 1.557-2.024 1.557-.178 0-.36-.023-.54-.072-1.12-.298-1.785-1.445-1.487-2.564zm20.824-1.498c1.12-.298 2.269.365 2.567 1.485.301 1.116-.362 2.265-1.482 2.566-.183.047-.362.071-.542.071-.927 0-1.773-.618-2.024-1.555-.3-1.117.365-2.266 1.481-2.567zm4.367-1.482c1.07-.443 2.295.062 2.74 1.132.443 1.068-.062 2.296-1.133 2.74-.263.108-.535.16-.803.16-.821 0-1.6-.486-1.936-1.292-.444-1.07.064-2.296 1.132-2.74zm-46.286.118c.918-.707 2.234-.535 2.94.383.707.917.534 2.23-.383 2.938-.38.294-.831.434-1.277.434-.627 0-1.248-.28-1.662-.815-.705-.92-.535-2.234.382-2.94zm61.963-1.093c.917-.706 2.234-.533 2.94.384.704.917.532 2.234-.386 2.94-.38.293-.828.433-1.274.433-.63 0-1.253-.28-1.664-.818-.706-.917-.533-2.234.384-2.94zm-28.007-1.253c1.156-.045 2.13.858 2.174 2.014.044 1.156-.858 2.13-2.014 2.175-.027.002-.055.002-.082.002-1.119 0-2.049-.888-2.093-2.017-.044-1.156.858-2.13 2.015-2.174zm-21.668.966c.58-1.001 1.861-1.343 2.865-.764 1 .577 1.344 1.859.764 2.862-.387.671-1.092 1.048-1.815 1.048-.357 0-.717-.091-1.047-.28-1.002-.58-1.344-1.862-.767-2.866zm38.13-.782c1.001-.58 2.283-.236 2.863.764.579 1.002.239 2.284-.762 2.863-.333.193-.693.284-1.05.284-.723 0-1.425-.375-1.815-1.046-.58-1.003-.24-2.285.764-2.865zm-23.433 1.49c.13-1.15 1.169-1.978 2.318-1.847 1.151.13 1.977 1.168 1.847 2.32-.121 1.07-1.029 1.859-2.082 1.859-.078 0-.157-.005-.236-.015-1.152-.13-1.978-1.168-1.847-2.317zm11.593-2.205c1.137-.22 2.234.524 2.456 1.66.22 1.136-.525 2.236-1.662 2.456-.132.027-.266.039-.399.039-.984 0-1.861-.698-2.056-1.7-.22-1.136.525-2.235 1.661-2.455zm-16.416.95c.306-1.117 1.458-1.773 2.575-1.47 1.116.306 1.775 1.46 1.469 2.574-.254.932-1.1 1.546-2.02 1.546-.184 0-.37-.024-.554-.076-1.117-.304-1.775-1.457-1.47-2.574zm20.899-2.182c1.087-.392 2.288.175 2.68 1.265.392 1.087-.173 2.287-1.263 2.68-.233.084-.473.125-.707.125-.86 0-1.667-.532-1.972-1.388-.392-1.09.172-2.29 1.262-2.682zm-53.676-.466c.918-.707 2.234-.535 2.939.382.707.918.535 2.232-.382 2.94-.38.293-.831.433-1.277.433-.627 0-1.248-.28-1.662-.816-.705-.92-.535-2.234.382-2.939zm18.993.251c.704-.917 2.018-1.09 2.938-.387.918.705 1.09 2.021.385 2.94-.412.536-1.033.82-1.664.82-.444 0-.893-.143-1.273-.434-.92-.705-1.092-2.02-.386-2.939zm9.21.414c.474-1.055 1.715-1.528 2.77-1.055 1.055.474 1.528 1.714 1.055 2.769-.348.78-1.112 1.24-1.913 1.24-.286 0-.577-.06-.856-.185-1.055-.473-1.529-1.71-1.055-2.769zm36.662-.818c.917-.706 2.234-.532 2.94.384.704.917.531 2.234-.386 2.94-.38.293-.828.433-1.275.433-.628 0-1.252-.281-1.664-.818-.705-.917-.532-2.234.385-2.94zm-6.95-1.285c1.015-.555 2.287-.18 2.842.836.555 1.016.18 2.29-.836 2.843-.32.175-.663.256-1.003.256-.743 0-1.46-.394-1.842-1.092-.555-1.016-.18-2.288.838-2.843zm-15.805-1.286l.15.002c1.157.049 2.052 1.027 2.002 2.184-.049 1.124-.976 2.005-2.093 2.005-.03 0-.061 0-.091-.003-1.157-.05-2.054-1.028-2.005-2.184.052-1.157 1.031-2.054 2.187-2.002zm4.71-.203c1.145-.155 2.2.649 2.356 1.797.155 1.147-.65 2.202-1.797 2.355-.097.015-.19.02-.284.02-1.033 0-1.933-.765-2.073-1.815-.156-1.149.65-2.205 1.797-2.357zm-22.832.934c.628-.97 1.925-1.25 2.897-.62.97.63 1.25 1.927.62 2.898-.4.62-1.074.958-1.762.958-.389 0-.784-.11-1.136-.339-.972-.628-1.248-1.928-.62-2.897zm11.245.247c.257-1.13 1.378-1.837 2.508-1.58 1.13.256 1.837 1.378 1.58 2.507-.22.972-1.084 1.632-2.042 1.632-.155 0-.31-.017-.465-.052-1.13-.256-1.837-1.378-1.58-2.507zm-19.737-1.43c.819-.819 2.145-.819 2.964-.003.818.82.818 2.145.002 2.966-.41.41-.946.615-1.484.615-.535 0-1.07-.205-1.48-.615-.82-.815-.82-2.142-.002-2.963zm35.766-.764c1.1-.358 2.283.244 2.64 1.346.358 1.1-.243 2.28-1.343 2.64-.217.07-.434.104-.649.104-.884 0-1.706-.565-1.994-1.45-.358-1.1.244-2.283 1.346-2.64zm10.553-.03c.92-.703 2.233-.527 2.937.392.702.922.527 2.236-.395 2.94-.38.29-.826.428-1.27.428-.632 0-1.255-.284-1.667-.824-.702-.92-.528-2.234.395-2.936zm-31.162.343c.455-1.066 1.686-1.558 2.75-1.105 1.066.456 1.559 1.687 1.105 2.752-.34.796-1.114 1.272-1.928 1.272-.276 0-.554-.054-.823-.167-1.065-.457-1.559-1.687-1.104-2.752zm-10.428-1.635c.77-.865 2.096-.942 2.959-.172.865.768.942 2.095.172 2.958-.414.466-.989.703-1.565.703-.495 0-.994-.176-1.393-.53-.866-.77-.942-2.096-.173-2.959zm35.223-.473c1.02-.55 2.291-.168 2.841.85.55 1.018.17 2.288-.848 2.838-.318.173-.659.252-.994.252-.747 0-1.466-.398-1.847-1.1-.55-1.019-.17-2.29.848-2.84zm-28.963-.563c.637-.966 1.938-1.232 2.905-.594.964.637 1.23 1.938.591 2.902-.401.612-1.07.942-1.75.942-.394 0-.796-.11-1.152-.348-.966-.636-1.232-1.935-.594-2.902zm-14.012-.726c.918-.709 2.234-.536 2.94.381.707.917.534 2.231-.383 2.94-.38.293-.83.433-1.277.433-.626 0-1.247-.281-1.662-.816-.705-.92-.535-2.234.382-2.938zm32.036-.647c1.157-.061 2.142.826 2.204 1.98.064 1.156-.823 2.145-1.98 2.206-.037.003-.076.003-.113.003-1.107 0-2.032-.865-2.091-1.982-.062-1.157.823-2.146 1.98-2.207zm-40.366.188c1.001-.58 2.283-.239 2.865.762.58 1.001.24 2.283-.764 2.865-.33.192-.69.283-1.048.283-.723 0-1.427-.374-1.815-1.045-.581-1.001-.24-2.283.762-2.865zm33.531 1.312c.188-1.143 1.262-1.919 2.404-1.734 1.144.185 1.92 1.262 1.734 2.404-.165 1.028-1.056 1.76-2.067 1.76-.11 0-.222-.007-.335-.027-1.144-.185-1.92-1.262-1.736-2.403zm11.206-2.212c1.117-.311 2.27.343 2.581 1.457.309 1.117-.345 2.27-1.46 2.581-.186.052-.376.077-.56.077-.918 0-1.761-.61-2.018-1.536-.31-1.115.343-2.271 1.457-2.58zm10.373.133c.903-.723 2.222-.577 2.944.327.722.905.574 2.225-.328 2.947-.387.308-.848.459-1.307.459-.616 0-1.225-.272-1.64-.79-.721-.902-.574-2.22.331-2.943zm-26.165.337c.429-1.074 1.648-1.6 2.722-1.173 1.075.429 1.6 1.647 1.171 2.722-.325.823-1.114 1.322-1.947 1.322-.257 0-.52-.047-.775-.148-1.075-.43-1.6-1.648-1.17-2.723zm-16.083-1.151c.89-.737 2.212-.612 2.949.279.737.892.614 2.214-.279 2.95-.392.324-.863.482-1.334.482-.603 0-1.203-.259-1.617-.76-.737-.892-.611-2.214.281-2.951zm35.988-.962c1.023-.545 2.293-.155 2.835.866.543 1.023.156 2.29-.868 2.836-.313.165-.648.243-.98.243-.75 0-1.475-.401-1.853-1.112-.542-1.02-.155-2.29.866-2.833zm-30.135.358c.8-.836 2.126-.868 2.964-.066.836.798.868 2.125.067 2.96-.412.432-.962.65-1.517.65-.517 0-1.04-.193-1.445-.58-.838-.8-.867-2.126-.069-2.964zm-12.877-1.568c1-.58 2.283-.239 2.865.762.579 1 .239 2.283-.765 2.864-.33.193-.69.284-1.048.284-.722 0-1.427-.375-1.814-1.045-.582-1.001-.24-2.283.762-2.865zm19.004.633c.649-.958 1.953-1.208 2.91-.56.959.652 1.208 1.956.56 2.913-.407.596-1.065.92-1.739.92-.404 0-.814-.119-1.173-.363-.96-.648-1.209-1.953-.558-2.91zm27.674-1.915c.88-.75 2.205-.641 2.954.24.75.882.643 2.204-.24 2.953-.393.335-.875.5-1.355.5-.594 0-1.183-.252-1.598-.737-.75-.882-.643-2.207.24-2.956zm-42.26-.792c.994-.594 2.28-.268 2.872.725.594.994.27 2.28-.724 2.875-.336.2-.706.296-1.073.296-.712 0-1.408-.365-1.8-1.02-.594-.997-.269-2.281.725-2.876zm5.488-.318c.935-.68 2.247-.476 2.93.461.68.935.476 2.246-.459 2.927-.375.271-.806.402-1.235.402-.646 0-1.285-.298-1.694-.86-.683-.935-.476-2.246.458-2.93zm5.666-.48c.839-.797 2.165-.763 2.962.078.796.839.762 2.165-.077 2.961-.407.385-.925.577-1.442.577-.555 0-1.11-.22-1.521-.653-.797-.84-.762-2.167.078-2.964zM19.808 62.32c1.12-.301 2.269.362 2.567 1.481.3 1.117-.363 2.266-1.48 2.567-.182.05-.364.072-.545.072-.924 0-1.772-.617-2.021-1.554-.3-1.117.362-2.266 1.479-2.566zm7.325-.374c1.068-.447 2.296.06 2.74 1.129.443 1.067-.062 2.295-1.13 2.739-.264.111-.537.163-.804.163-.82 0-1.602-.488-1.938-1.292-.443-1.07.062-2.296 1.132-2.74zm-14.64-.72c1.147-.15 2.2.658 2.352 1.805.15 1.149-.658 2.202-1.804 2.352-.094.013-.185.017-.276.017-1.036 0-1.938-.766-2.076-1.822-.15-1.149.655-2.201 1.804-2.352zm19.054-1.45c1.074-.434 2.295.084 2.73 1.156.433 1.075-.085 2.296-1.158 2.73-.256.103-.522.153-.784.153-.828 0-1.614-.493-1.945-1.31-.434-1.072.083-2.295 1.157-2.73zm5.197-.148c1.043-.505 2.296-.07 2.798.974.506 1.043.07 2.295-.974 2.798-.293.144-.604.21-.91.21-.779 0-1.525-.436-1.888-1.184-.503-1.04-.07-2.295.974-2.798zm5.279-.214c.99-.6 2.278-.282 2.877.71.599.991.28 2.277-.71 2.877-.338.204-.712.303-1.082.303-.708 0-1.4-.362-1.795-1.013-.6-.992-.281-2.278.71-2.877zM25.819 57.23c1.119-.3 2.268.362 2.567 1.482.3 1.116-.363 2.266-1.48 2.566-.182.05-.365.072-.545.072-.924 0-1.772-.617-2.022-1.553-.3-1.118.363-2.266 1.48-2.567zm4.532-2.288c1.126-.266 2.256.433 2.52 1.56.263 1.127-.437 2.256-1.564 2.52-.16.037-.32.055-.478.055-.952 0-1.814-.651-2.04-1.618-.263-1.126.435-2.253 1.562-2.517zm5.007-.065c1.117-.307 2.271.346 2.58 1.46.307 1.117-.346 2.271-1.463 2.58-.187.05-.375.076-.56.076-.917 0-1.76-.609-2.016-1.539-.311-1.114.345-2.268 1.46-2.577zm5.02-.085c1.097-.37 2.286.219 2.656 1.316.372 1.095-.217 2.285-1.314 2.655-.223.075-.449.111-.671.111-.873 0-1.689-.552-1.985-1.425-.37-1.097.22-2.285 1.314-2.657zm-15.242-2.41c1.146-.15 2.2.659 2.352 1.806.15 1.148-.658 2.201-1.805 2.352-.094.012-.185.017-.276.017-1.036 0-1.938-.767-2.076-1.822-.15-1.15.656-2.202 1.805-2.353zm4.773-2.404c1.154-.088 2.163.775 2.252 1.929.088 1.154-.775 2.162-1.929 2.25-.056.003-.11.006-.162.006-1.085 0-2.005-.836-2.089-1.936-.089-1.154.775-2.16 1.928-2.249zm4.939-.024c1.154-.104 2.172.747 2.276 1.898.103 1.154-.748 2.173-1.902 2.276-.061.008-.125.01-.19.01-1.072 0-1.984-.821-2.083-1.908-.103-1.154.748-2.172 1.899-2.276zm4.926-.03c1.149-.126 2.185.708 2.308 1.857.126 1.151-.706 2.187-1.857 2.31-.076.01-.152.012-.229.012-1.055 0-1.965-.796-2.08-1.868-.124-1.152.707-2.185 1.858-2.31zM7.324 48.79c1.156 0 2.095.936 2.097 2.093 0 1.159-.936 2.098-2.093 2.098-1.161 0-2.098-.936-2.098-2.093-.003-1.156.934-2.096 2.093-2.098zm11.307 0c1.157 0 2.096.936 2.098 2.093 0 1.159-.936 2.098-2.093 2.098-1.161 0-2.098-.936-2.098-2.093-.003-1.156.934-2.096 2.093-2.098zm6.456-1.301c1.156 0 2.096.936 2.098 2.093 0 1.159-.937 2.098-2.094 2.098-1.161 0-2.098-.937-2.098-2.093-.002-1.156.935-2.096 2.094-2.098zm14.979-2.46l.15.011c1.151.123 1.984 1.154 1.861 2.305-.114 1.076-1.023 1.874-2.081 1.874-.074 0-.148-.002-.225-.01-1.15-.123-1.984-1.156-1.86-2.307.122-1.15 1.153-1.985 2.304-1.862zm-5.002-.02l.15.009c1.152.101 2.005 1.12 1.905 2.27-.096 1.093-1.012 1.914-2.086 1.914-.062 0-.124-.003-.185-.008-1.154-.1-2.007-1.116-1.906-2.27.101-1.154 1.12-2.007 2.271-1.906zM30.07 45l.15.006c1.154.087 2.022 1.093 1.935 2.247-.083 1.099-1 1.94-2.088 1.94-.052 0-.106-.002-.158-.007-1.153-.084-2.019-1.09-1.935-2.244.086-1.157 1.092-2.022 2.246-1.936zm-6.751-.56c.148-1.147 1.2-1.958 2.347-1.81 1.15.148 1.957 1.2 1.81 2.347-.136 1.057-1.038 1.827-2.076 1.827-.09 0-.18-.005-.272-.017-1.146-.148-1.957-1.198-1.81-2.347zm-11.095-2.697c1.12-.301 2.268.362 2.566 1.481.3 1.117-.363 2.266-1.48 2.567-.181.05-.364.072-.544.072-.925 0-1.773-.617-2.022-1.554-.3-1.117.362-2.266 1.48-2.566zm26.823-.058c.37-1.097 1.558-1.688 2.655-1.321 1.097.37 1.686 1.558 1.32 2.656-.294.875-1.11 1.43-1.988 1.427-.22 0-.446-.035-.666-.109-1.097-.367-1.688-1.555-1.321-2.653zm-5.168.01c.306-1.114 1.46-1.773 2.576-1.467 1.115.306 1.773 1.46 1.467 2.577-.256.93-1.099 1.541-2.022 1.541-.182 0-.369-.025-.554-.074-1.115-.306-1.773-1.46-1.467-2.577zm-5.109.013c.262-1.127 1.388-1.83 2.515-1.568 1.127.26 1.83 1.388 1.568 2.515-.224.968-1.087 1.622-2.039 1.622-.158 0-.316-.017-.476-.054-1.127-.262-1.83-1.386-1.568-2.515zm-10.066-1.164c.298-1.12 1.445-1.785 2.564-1.487 1.12.298 1.785 1.445 1.487 2.565-.249.936-1.097 1.558-2.025 1.555-.177 0-.36-.022-.54-.069-1.119-.298-1.782-1.445-1.486-2.564zm5.61-1.169c.3-1.119 1.445-1.785 2.565-1.487 1.12.299 1.785 1.445 1.487 2.565-.25.936-1.097 1.558-2.025 1.555-.177 0-.36-.022-.54-.069-1.119-.298-1.782-1.444-1.486-2.564zm16.974-2.54c.597-.99 1.883-1.311 2.875-.714.991.596 1.311 1.883.717 2.877-.394.653-1.087 1.016-1.8 1.016-.367 0-.739-.099-1.077-.301-.991-.597-1.312-1.883-.715-2.877zm-5.548-.118c.503-1.043 1.753-1.482 2.799-.978 1.043.5 1.482 1.752.978 2.795-.36.75-1.109 1.189-1.888 1.189-.305 0-.614-.067-.907-.207-1.043-.503-1.482-1.756-.982-2.799zm-5.38-.064c.432-1.072 1.653-1.595 2.727-1.163 1.073.434 1.596 1.654 1.164 2.726-.33.819-1.117 1.314-1.945 1.314-.262 0-.525-.047-.782-.15-1.075-.431-1.595-1.652-1.164-2.727zm-4.39-2.172c.44-1.07 1.666-1.58 2.736-1.137 1.07.442 1.58 1.667 1.137 2.737-.333.806-1.115 1.295-1.938 1.295-.266 0-.538-.05-.8-.158-1.07-.442-1.577-1.667-1.136-2.737zm18.546-1.893c.793-.844 2.12-.881 2.96-.085.842.795.878 2.121.085 2.962-.413.436-.967.658-1.524.658-.516 0-1.033-.19-1.44-.575-.841-.793-.878-2.12-.081-2.96zm-44.357.072c.442-1.07 1.667-1.58 2.737-1.14 1.07.443 1.578 1.668 1.137 2.738-.334.808-1.115 1.297-1.938 1.297-.267 0-.538-.052-.8-.158-1.07-.441-1.577-1.667-1.136-2.737zm38.303-.504c.68-.937 1.992-1.144 2.93-.464.934.679 1.144 1.99.463 2.927-.41.565-1.048.865-1.696.865-.427 0-.858-.13-1.23-.4-.938-.68-1.145-1.99-.467-2.928zm-5.754-.25c.591-.995 1.878-1.323 2.872-.731.996.592 1.324 1.876.732 2.872-.392.658-1.09 1.025-1.804 1.025-.363 0-.733-.095-1.068-.295-.996-.59-1.322-1.876-.732-2.87zm42.748-.963c.747-.885 2.069-.994 2.954-.247.882.75.99 2.071.244 2.954-.414.49-1.006.742-1.6.742-.479 0-.959-.163-1.354-.495-.882-.75-.994-2.072-.244-2.954zm-26.882-1.817c.957-.651 2.26-.405 2.912.552.653.956.404 2.26-.553 2.912-.36.247-.771.365-1.176.365-.67 0-1.329-.32-1.736-.917-.65-.957-.404-2.261.553-2.912zm-31.878.933c.441-1.07 1.667-1.58 2.737-1.136 1.07.441 1.58 1.666 1.137 2.737-.333.806-1.114 1.294-1.938 1.294-.266 0-.537-.05-.799-.158-1.07-.44-1.578-1.666-1.137-2.737zm9.045-1.22c.576-1.002 1.859-1.347 2.862-.767 1 .58 1.346 1.859.767 2.862-.387.674-1.093 1.048-1.817 1.048-.356 0-.715-.089-1.046-.278-1.003-.58-1.346-1.862-.766-2.865zm16.213-.685c.835-.801 2.162-.771 2.963.062.8.835.772 2.162-.064 2.964-.405.389-.927.584-1.45.584-.55 0-1.102-.217-1.51-.646-.802-.836-.775-2.163.06-2.964zm29.202.424c.54-1.023 1.81-1.413 2.833-.873 1.023.543 1.413 1.81.873 2.833-.378.71-1.105 1.118-1.856 1.118-.331 0-.666-.08-.977-.245-1.024-.54-1.416-1.81-.873-2.833zm-35.403-1.003c.734-.895 2.056-1.02 2.949-.286.895.734 1.02 2.056.285 2.951-.414.503-1.013.762-1.62.762-.468 0-.939-.155-1.329-.478-.895-.735-1.022-2.057-.285-2.95zm17.533-.96c1.072-.429 2.293.092 2.724 1.167.429 1.075-.094 2.295-1.166 2.724-.257.104-.52.151-.78.151-.83 0-1.617-.498-1.945-1.317-.431-1.075.091-2.293 1.167-2.724zm24.66.062c.72-.905 2.04-1.055 2.944-.335.908.72 1.058 2.04.336 2.944-.412.52-1.024.792-1.64.792-.458 0-.92-.149-1.305-.457-.904-.72-1.055-2.039-.334-2.944zm-11.5.525c.307-1.117 1.46-1.772 2.577-1.464 1.118.305 1.773 1.46 1.465 2.577-.256.93-1.1 1.538-2.02 1.538-.184 0-.372-.025-.557-.074-1.116-.308-1.773-1.462-1.464-2.577zm-8.017-2.019c1.141-.19 2.221.585 2.408 1.728.188 1.142-.586 2.22-1.728 2.407-.116.02-.229.027-.342.027-1.01 0-1.897-.727-2.066-1.755-.188-1.142.586-2.22 1.728-2.407zm5.175-.298l.15.002c1.157.06 2.044 1.046 1.985 2.202-.06 1.12-.983 1.988-2.093 1.988-.035 0-.072 0-.109-.003-1.156-.06-2.044-1.046-1.984-2.202.059-1.156 1.045-2.044 2.201-1.985zm-32.486.668c.704-.918 2.018-1.092 2.938-.387.92.703 1.093 2.02.39 2.936-.415.54-1.036.821-1.666.821-.445 0-.893-.14-1.273-.431-.92-.705-1.093-2.02-.39-2.94zm14.98-.718c.964-.638 2.264-.377 2.904.59.64.964.378 2.264-.588 2.904-.356.237-.757.35-1.157.35-.678 0-1.344-.33-1.748-.937-.638-.966-.377-2.265.59-2.907zm-6.681-1.077c.862-.772 2.187-.698 2.958.166.772.862.698 2.186-.165 2.958-.4.358-.898.532-1.395.532-.577 0-1.15-.234-1.564-.697-.772-.863-.697-2.187.166-2.959zm34.2.518c.547-1.02 1.817-1.403 2.838-.856 1.02.547 1.403 1.817.855 2.838-.377.705-1.102 1.105-1.85 1.105-.332 0-.672-.079-.987-.25-1.022-.547-1.403-1.817-.856-2.837zm-22.849-1.968c1.063-.456 2.296.035 2.754 1.1.456 1.062-.035 2.295-1.1 2.751-.268.116-.55.17-.826.17-.81 0-1.585-.473-1.925-1.267-.458-1.065.034-2.295 1.097-2.754zm29.669.094c.7-.922 2.014-1.102 2.936-.4.922.7 1.1 2.015.4 2.937-.412.54-1.038.826-1.67.826-.44 0-.887-.138-1.267-.426-.922-.703-1.1-2.018-.4-2.937zm-11.51.288c.355-1.102 1.536-1.706 2.638-1.351 1.102.355 1.706 1.536 1.352 2.638-.287.888-1.11 1.452-1.995 1.452-.213 0-.43-.031-.644-.1-1.102-.356-1.706-1.539-1.351-2.639zm-34.41-1.02c.817-.819 2.145-.821 2.964-.003.819.816.821 2.145.005 2.964-.412.41-.947.616-1.484.616-.538 0-1.073-.204-1.482-.613-.818-.817-.821-2.143-.003-2.964zm21.303-1.011c1.127-.256 2.251.448 2.51 1.575.259 1.13-.446 2.254-1.575 2.512-.158.036-.314.052-.469.052-.957 0-1.82-.655-2.041-1.626-.26-1.13.446-2.254 1.575-2.513zm-12.202-.119c.969-.631 2.268-.354 2.9.615.63.969.357 2.267-.614 2.899-.353.23-.75.34-1.142.34-.683 0-1.356-.335-1.758-.954-.631-.97-.355-2.268.614-2.9zm20.413 1.433c.15-1.15 1.205-1.955 2.352-1.802 1.146.152 1.955 1.206 1.802 2.352-.14 1.055-1.04 1.822-2.073 1.822-.094 0-.185-.008-.28-.02-1.148-.15-1.954-1.206-1.801-2.352zm-2.95-2.029c1.157-.052 2.136.84 2.19 1.997.052 1.156-.843 2.138-1.997 2.19-.035.002-.067.002-.098.002-1.115 0-2.042-.876-2.091-2-.055-1.156.84-2.135 1.997-2.189zm15.004.027c.552-1.018 1.825-1.396 2.843-.843 1.016.552 1.393 1.824.84 2.842-.38.698-1.1 1.095-1.844 1.095-.335 0-.678-.081-.996-.253-1.018-.553-1.395-1.823-.843-2.841zm-48.098-.926c.705-.917 2.02-1.091 2.939-.386.92.703 1.092 2.02.39 2.937-.415.54-1.036.82-1.667.82-.445 0-.893-.14-1.273-.431-.92-.706-1.092-2.02-.39-2.94zm10.404-.783c.917-.705 2.231-.535 2.939.382.708.915.535 2.232-.382 2.94-.38.293-.83.436-1.277.436-.626 0-1.248-.281-1.662-.819-.706-.917-.535-2.23.382-2.939zm9.87-.259c1.055-.475 2.295-.007 2.77 1.048.477 1.055.008 2.298-1.047 2.774-.28.126-.572.185-.86.185-.8 0-1.564-.459-1.914-1.235-.476-1.055-.004-2.296 1.05-2.772zm37.68.085c.703-.917 2.02-1.092 2.936-.39.92.706 1.095 2.02.393 2.94-.415.537-1.036.82-1.667.82-.445 0-.893-.14-1.273-.43-.92-.703-1.094-2.02-.389-2.94zm-14.53.15c.389-1.093 1.59-1.66 2.68-1.27 1.089.39 1.656 1.588 1.269 2.678-.308.857-1.115 1.392-1.975 1.392-.234 0-.47-.039-.705-.123-1.09-.39-1.657-1.588-1.27-2.677zm-18.17-2.032c1.117-.309 2.27.345 2.576 1.462.309 1.114-.345 2.268-1.461 2.577-.185.051-.375.076-.558.076-.92 0-1.762-.61-2.02-1.539-.307-1.114.347-2.27 1.463-2.576zm-31.423.13c.816-.819 2.145-.82 2.964-.002.819.816.82 2.145.005 2.963-.412.41-.947.617-1.485.617-.537 0-1.072-.205-1.481-.614-.819-.816-.822-2.143-.003-2.964zm44.71.906c.217-1.137 1.314-1.882 2.453-1.665 1.137.217 1.882 1.314 1.665 2.45-.193 1.004-1.07 1.705-2.057 1.705-.13 0-.261-.013-.394-.037-1.137-.217-1.884-1.317-1.667-2.453zm-8.09-2.047c1.15-.133 2.19.69 2.323 1.84.133 1.148-.69 2.189-1.841 2.322-.082.01-.163.015-.243.015-1.05 0-1.957-.787-2.08-1.855-.134-1.15.69-2.189 1.842-2.322zm-15.764.192c1-.582 2.283-.241 2.864.76.583 1 .242 2.283-.759 2.865-.332.192-.695.283-1.05.283-.723 0-1.428-.374-1.815-1.042-.581-1.002-.241-2.286.76-2.866zm36.601.708c.577-1.003 1.86-1.348 2.86-.771 1.004.579 1.35 1.86.77 2.862-.388.673-1.092 1.05-1.818 1.05-.354 0-.715-.091-1.042-.28-1.004-.578-1.349-1.86-.77-2.86zm-15.553-1.11c1.157.042 2.062 1.014 2.02 2.17-.043 1.132-.972 2.02-2.094 2.02h-.076c-1.156-.043-2.061-1.014-2.02-2.17.043-1.156 1.014-2.062 2.17-2.02zm-16.425-1.89c1.067-.444 2.295.06 2.739 1.129.446 1.067-.06 2.295-1.13 2.741-.263.109-.535.16-.803.16-.821 0-1.6-.485-1.935-1.289-.447-1.07.058-2.296 1.129-2.742zm27.469 1.09c.44-1.07 1.666-1.582 2.737-1.14 1.07.441 1.577 1.667 1.136 2.737-.333.808-1.114 1.297-1.938 1.297-.266 0-.537-.052-.799-.158-1.07-.441-1.577-1.667-1.136-2.736zm-41.642-2.17c.917-.706 2.23-.536 2.939.381.707.916.535 2.232-.382 2.94-.38.293-.831.436-1.278.436-.626 0-1.248-.281-1.662-.819-.705-.917-.535-2.23.383-2.939zm19.06-.588c1.117-.3 2.265.363 2.566 1.48.3 1.12-.36 2.269-1.48 2.569-.182.05-.364.072-.544.072-.925 0-1.77-.617-2.022-1.551-.3-1.117.36-2.269 1.48-2.57zm17.858 1.455c.298-1.12 1.445-1.784 2.564-1.489 1.12.298 1.785 1.445 1.49 2.565-.25.936-1.098 1.558-2.025 1.558-.18 0-.36-.022-.54-.072-1.12-.296-1.785-1.442-1.49-2.562zm-12.797-2.465c1.147-.15 2.2.656 2.352 1.805.15 1.146-.655 2.199-1.802 2.352-.094.012-.187.017-.279.017-1.035 0-1.935-.767-2.073-1.822-.153-1.147.656-2.2 1.802-2.352zm7.95 1.795c.147-1.147 1.197-1.958 2.344-1.81 1.15.145 1.96 1.196 1.812 2.345-.135 1.058-1.038 1.83-2.076 1.83-.088 0-.18-.008-.268-.018-1.15-.148-1.96-1.198-1.813-2.347zm-2.804-2.135c1.159-.003 2.098.934 2.1 2.093.003 1.156-.934 2.095-2.092 2.098-1.16 0-2.096-.937-2.1-2.093-.001-1.157.935-2.096 2.092-2.098zm18.733-.265c.442-1.07 1.667-1.58 2.737-1.14 1.07.442 1.578 1.667 1.137 2.738-.333.808-1.115 1.296-1.938 1.296-.266 0-.538-.051-.8-.158-1.069-.44-1.577-1.666-1.136-2.736zm11.641-1.137c.442-1.07 1.667-1.58 2.737-1.14 1.07.442 1.578 1.668 1.137 2.737-.334.81-1.115 1.298-1.939 1.298-.266 0-.537-.052-.798-.158-1.07-.441-1.578-1.667-1.137-2.737zM49.552 6.581c1.159-.003 2.098.934 2.1 2.093.003 1.156-.934 2.095-2.093 2.098-1.16 0-2.096-.936-2.098-2.093-.002-1.157.934-2.096 2.09-2.098zm25.6-1.083c.442-1.07 1.667-1.581 2.738-1.14 1.07.442 1.578 1.667 1.137 2.738-.334.808-1.115 1.296-1.94 1.296-.265 0-.536-.051-.798-.158-1.07-.44-1.577-1.666-1.136-2.736zm-38.058-3.11c1.001-.582 2.283-.242 2.865.76.582 1 .242 2.282-.76 2.864-.332.193-.695.284-1.05.284-.722 0-1.427-.375-1.814-1.043-.582-1.001-.241-2.286.76-2.865zm24.551-.56C61.793.68 62.843-.132 63.99.017c1.15.144 1.96 1.195 1.812 2.344-.136 1.058-1.038 1.83-2.076 1.83-.089 0-.18-.008-.269-.018-1.149-.147-1.96-1.198-1.812-2.347z" transform="translate(-169 -93) translate(169 93)"/>
            </g>
        </g>
    </g>
</svg>
