<svg width="33" height="32" viewBox="0 0 33 32" fill="none" xmlns="http://www.w3.org/2000/svg">
<path fill-rule="evenodd" clip-rule="evenodd" d="M0.5 16C0.5 7.16344 7.66344 0 16.5 0C25.3366 0 32.5 7.16344 32.5 16C32.5 24.8366 25.3366 32 16.5 32C7.66344 32 0.5 24.8366 0.5 16Z" fill="white"/>
<g mask="url(#mask0_685_1627)">
<path fill-rule="evenodd" clip-rule="evenodd" d="M14.3667 16C14.3667 15.4138 14.7885 14.9333 15.3228 14.9333C15.857 14.9333 16.2882 15.4138 16.2788 16C16.2788 16.5862 15.857 17.0667 15.3228 17.0667C14.7979 17.0667 14.3667 16.5862 14.3667 16ZM17.7879 16C17.7879 15.4138 18.2097 14.9333 18.744 14.9333C19.2782 14.9333 19.7 15.4138 19.7 16C19.7 16.5862 19.2782 17.0667 18.744 17.0667C18.2191 17.0667 17.7879 16.5862 17.7879 16Z" fill="#7289DA"/>
<path fill-rule="evenodd" clip-rule="evenodd" d="M10.4368 6.93335H23.0966C24.1642 6.93335 25.0333 7.79202 25.0333 8.85602V25.6L23.0021 23.8267L21.8589 22.7813L20.6496 21.6707L21.1504 23.3974H10.4368C9.36918 23.3974 8.5 22.5387 8.5 21.4747V8.85602C8.5 7.79202 9.36918 6.93335 10.4368 6.93335ZM18.8262 18.3667C19.1097 18.7214 19.4498 19.1227 19.4498 19.1227C21.5377 19.0574 22.3408 17.704 22.3408 17.704C22.3408 14.6987 20.9803 12.2627 20.9803 12.2627C19.6198 11.2547 18.3255 11.2827 18.3255 11.2827L18.1933 11.432C19.7994 11.9173 20.5457 12.6174 20.5457 12.6174C19.5632 12.0854 18.5995 11.824 17.702 11.7213C17.0218 11.6467 16.3699 11.6653 15.7936 11.74C15.7441 11.74 15.7018 11.7471 15.6541 11.7551C15.6472 11.7563 15.6402 11.7575 15.633 11.7587C15.3023 11.7867 14.4992 11.908 13.4883 12.3467C13.1388 12.5054 12.9309 12.6174 12.9309 12.6174C12.9309 12.6174 13.7151 11.88 15.4157 11.3947L15.3212 11.2827C15.3212 11.2827 14.0269 11.2547 12.6664 12.2627C12.6664 12.2627 11.3059 14.6987 11.3059 17.704C11.3059 17.704 12.0995 19.0574 14.1875 19.1227C14.1875 19.1227 14.537 18.7027 14.8205 18.348C13.6206 17.9934 13.1671 17.2467 13.1671 17.2467C13.1671 17.2467 13.2616 17.312 13.4317 17.4054C13.4411 17.4147 13.4506 17.424 13.4694 17.4334C13.4836 17.4427 13.4978 17.4497 13.512 17.4567C13.5261 17.4637 13.5403 17.4707 13.5545 17.48C13.7907 17.6107 14.0269 17.7134 14.2442 17.7974C14.6315 17.9467 15.0944 18.096 15.633 18.1987C16.3415 18.3294 17.1729 18.376 18.0799 18.208C18.5239 18.1334 18.9774 18.0027 19.4498 17.8067C19.7805 17.6854 20.1489 17.508 20.5363 17.256C20.5363 17.256 20.0639 18.0214 18.8262 18.3667Z" fill="#7289DA"/>
</g>
</svg>
