<svg width="33" height="32" viewBox="0 0 33 32" fill="none" xmlns="http://www.w3.org/2000/svg">
<path d="M16.5 32C25.3366 32 32.5 24.8366 32.5 16C32.5 7.16344 25.3366 0 16.5 0C7.66344 0 0.5 7.16344 0.5 16C0.5 24.8366 7.66344 32 16.5 32Z" fill="white"/>
<path fill-rule="evenodd" clip-rule="evenodd" d="M19.4735 6.04561L8.37369 6.8624C7.47866 6.93986 7.16675 7.52333 7.16675 8.22283V20.3544C7.16675 20.8995 7.36117 21.3653 7.82872 21.988L10.438 25.3709C10.8666 25.9156 11.2561 26.0321 12.0745 25.9931L24.9647 25.2153C26.0549 25.1379 26.3667 24.6321 26.3667 23.7767V10.1283C26.3667 9.68615 26.1917 9.55842 25.6755 9.18189C25.6471 9.16118 25.6177 9.13971 25.5872 9.11739L22.044 6.62892C21.1873 6.00704 20.8366 5.92879 19.4735 6.04561ZM12.3668 9.90444C11.3144 9.97545 11.0752 9.99159 10.4776 9.50643L8.95777 8.30107C8.80276 8.1452 8.88051 7.95077 9.26968 7.91221L19.9409 7.13446C20.8364 7.05652 21.3037 7.3681 21.6544 7.64016L23.4847 8.96232C23.5626 9.00105 23.757 9.23406 23.5232 9.23406L12.5026 9.89531L12.3668 9.90444ZM11.1392 23.6598V12.0728C11.1392 11.5675 11.295 11.334 11.7621 11.2948L24.4189 10.5562C24.8482 10.5173 25.0426 10.7897 25.0426 11.2948V22.804C25.0426 23.3098 24.9645 23.7382 24.2632 23.7767L12.1516 24.477C11.4507 24.5155 11.1392 24.2826 11.1392 23.6598ZM23.0958 12.6944C23.1735 13.0447 23.0958 13.3947 22.7446 13.4341L22.161 13.5502V22.1045C21.6544 22.3766 21.1871 22.5322 20.7978 22.5322C20.1745 22.5322 20.0184 22.3376 19.5515 21.7547L15.7343 15.7667V21.5602L16.9422 21.8326C16.9422 21.8326 16.9422 22.5322 15.9677 22.5322L13.2811 22.6879C13.2031 22.5322 13.2811 22.1437 13.5536 22.0658L14.2547 21.8717V14.2115L13.2813 14.1335C13.2032 13.7832 13.3976 13.2782 13.9433 13.239L16.8253 13.0449L20.7978 19.1108V13.7447L19.785 13.6285C19.7072 13.2003 20.0184 12.8893 20.4079 12.8507L23.0958 12.6944Z" fill="black"/>
</svg>
